# xmcd
#
# Track frame offsets: 
#        150
#        21230
#        36030
#        63000
#        82727
#        100212
#        116540
#        130397
#        144417
#        163885
#        180425
#        202500
#
# Disc length: 2934 seconds
#
# Revision: 0
# Processed by: cddbd v1.5.2PL0 Copyright (c) Steve Scherf et al.
# Submitted via: ExactAudioCopy v0.99pb5
#
DISCID=8f0b740c
DTITLE=Matthew Robinson - Bad Habits
DYEAR=1998
DGENRE=Blues
TTITLE0=Got To Leave This Woman
TTITLE1=Mr. Pawnbroker
TTITLE2=You Just Can't Take My Blues
TTITLE3=Sunday Morning Love
TTITLE4=Just Your Fool
TTITLE5=I'm Gonna Stop You From Giving Me The Blues
TTITLE6=Sugar Sweet
TTITLE7=Don't Lose Your Cool
TTITLE8=My Tomorrow
TTITLE9=Give Me My Blues
TTITLE10=West Side Baby
TTITLE11=Bad Habits
EXTD=
EXTT0=
EXTT1=
EXTT2=
EXTT3=
EXTT4=
EXTT5=
EXTT6=
EXTT7=
EXTT8=
EXTT9=
EXTT10=
EXTT11=
PLAYORDER=
